<svg width="30" height="30" viewBox="0 0 30 30" fill="none" xmlns="http://www.w3.org/2000/svg">
<g clip-path="url(#clip0_125_3743)">
<path d="M15.75 25H12.75V22H15.75V25ZM15.75 20H12.75V19.993C12.75 18.343 12.75 16.918 13.422 15.92C13.9448 15.2574 14.5953 14.7065 15.335 14.3C15.669 14.086 15.984 13.883 16.249 13.672C16.8174 13.232 17.2459 12.6365 17.4823 11.9576C17.7188 11.2788 17.7531 10.5459 17.581 9.84802C17.3112 9.20298 16.8267 8.67097 16.2097 8.34205C15.5927 8.01312 14.881 7.90748 14.1951 8.04299C13.5091 8.17851 12.8911 8.54687 12.4455 9.08572C12 9.62458 11.7543 10.3008 11.75 11H8.75C8.75 9.40872 9.38214 7.8826 10.5074 6.75738C11.6326 5.63217 13.1587 5.00003 14.75 5.00003C15.8799 4.99663 16.9882 5.31027 17.9487 5.90528C18.9093 6.5003 19.6837 7.35284 20.184 8.36602C20.6333 9.39835 20.784 10.536 20.6189 11.6497C20.4538 12.7634 19.9795 13.8085 19.25 14.666C18.797 15.168 18.29 15.616 17.736 16.003C17.2516 16.3371 16.8097 16.729 16.42 17.17C15.8692 18.0045 15.6318 19.0071 15.75 20Z" fill="white"/>
</g>
<defs>
<clipPath id="clip0_125_3743">
<rect width="30" height="30" fill="white"/>
</clipPath>
</defs>
</svg>
