<svg width="110" height="80" viewBox="0 0 110 80" fill="none" xmlns="http://www.w3.org/2000/svg">
<path d="M80.4133 50C87.33 50 92.8717 44.4167 92.8717 37.5L92.9133 12.5C92.9133 5.58333 87.33 0 80.4133 0C73.4967 0 67.9133 5.58333 67.9133 12.5V37.5C67.9133 44.4167 73.4967 50 80.4133 50ZM102.497 37.5C102.497 50 91.9133 58.75 80.4133 58.75C68.9133 58.75 58.33 50 58.33 37.5H51.2467C51.2467 51.75 62.58 63.4583 76.2467 65.5V79.1667H84.58V65.5C98.2467 63.5 109.58 51.75 109.58 37.5H102.497Z" fill="#CF6545"/>
<path d="M29.1667 50C36.0833 50 41.625 44.4167 41.625 37.5L41.6667 12.5C41.6667 5.58333 36.0833 0 29.1667 0C22.25 0 16.6667 5.58333 16.6667 12.5V37.5C16.6667 44.4167 22.25 50 29.1667 50ZM51.25 37.5C51.25 50 40.6667 58.75 29.1667 58.75C17.6667 58.75 7.08333 50 7.08333 37.5H0C0 51.75 11.3333 63.4583 25 65.5V79.1667H33.3333V65.5C47 63.5 58.3333 51.75 58.3333 37.5H51.25Z" fill="#67747B"/>
<path fill-rule="evenodd" clip-rule="evenodd" d="M54.7927 50.8196C56.9929 46.9306 58.282 42.4973 58.3318 37.7839C58.3306 37.6895 58.33 37.5949 58.33 37.5L51.25 37.5C51.25 37.5948 51.2494 37.6894 51.2482 37.7838C51.298 42.5009 52.5891 46.9329 54.7927 50.8196Z" fill="#FFFAF2"/>
</svg>
