<svg width="354" height="670" viewBox="0 0 354 670" fill="none" xmlns="http://www.w3.org/2000/svg">
<path d="M341 309V394C341 484.575 267.575 558 177 558V558C86.4253 558 13 484.575 13 394V309" stroke="#D9D9D9" stroke-width="25" stroke-linecap="round"/>
<rect x="58" width="238" height="513" rx="119" fill="#D9D9D9"/>
<g clip-path="url(#clip0_349_3153)">
<path d="M177 381.475L164.675 370.255C120.9 330.56 92 304.38 92 272.25C92 246.07 112.57 225.5 138.75 225.5C153.54 225.5 167.735 232.385 177 243.265C186.265 232.385 200.46 225.5 215.25 225.5C241.43 225.5 262 246.07 262 272.25C262 304.38 233.1 330.56 189.325 370.34L177 381.475Z" fill="#8E2525"/>
</g>
<rect x="164" y="558" width="25" height="100" rx="12.5" fill="#D9D9D9"/>
<rect x="90" y="645" width="174" height="25" fill="#D9D9D9"/>
<defs>
<clipPath id="clip0_349_3153">
<rect width="204" height="204" fill="white" transform="translate(75 200)"/>
</clipPath>
</defs>
</svg>
