<svg width="30" height="30" viewBox="0 0 30 30" fill="none" xmlns="http://www.w3.org/2000/svg">
<g clip-path="url(#clip0_125_3739)">
<path d="M15 18.75C17.075 18.75 18.7375 17.075 18.7375 15L18.75 7.5C18.75 5.425 17.075 3.75 15 3.75C12.925 3.75 11.25 5.425 11.25 7.5V15C11.25 17.075 12.925 18.75 15 18.75ZM21.625 15C21.625 18.75 18.45 21.375 15 21.375C11.55 21.375 8.375 18.75 8.375 15H6.25C6.25 19.275 9.65 22.7875 13.75 23.4V27.5H16.25V23.4C20.35 22.8 23.75 19.275 23.75 15H21.625Z" fill="white"/>
</g>
<defs>
<clipPath id="clip0_125_3739">
<rect width="30" height="30" fill="white"/>
</clipPath>
</defs>
</svg>
