<svg width="24" height="24" viewBox="0 0 24 24" fill="none" xmlns="http://www.w3.org/2000/svg">
<path d="M12.6508 2.24073C12.2763 1.91974 11.7233 1.92007 11.3488 2.24106L11.2604 2.31823C11.2055 2.36654 11.1266 2.4368 11.0269 2.52728C10.8277 2.70819 10.5454 2.97036 10.2077 3.30004C9.5335 3.9582 8.63218 4.89144 7.72807 5.98928C6.8264 7.08416 5.90543 8.36263 5.206 9.71154C4.51106 11.0518 4 12.5279 4 14C4 18.4183 7.58172 22 12 22C16.4183 22 20 18.4183 20 14C20 12.5279 19.4889 11.0518 18.794 9.71154C18.0946 8.36263 17.1736 7.08416 16.2719 5.98928C15.3678 4.89144 14.4665 3.9582 13.7923 3.30004C13.4546 2.97036 13.1723 2.70819 12.9731 2.52728L12.6508 2.24073ZM6 14C6 12.9721 6.36394 11.8232 6.9815 10.6322C7.59457 9.44984 8.4236 8.29081 9.27193 7.26069C10.1178 6.23354 10.9665 5.35427 11.6048 4.73119C11.7483 4.59109 11.8809 4.46425 12 4.35191C12.1191 4.46425 12.2517 4.59109 12.3952 4.73119C13.0335 5.35427 13.8822 6.23354 14.7281 7.26069C15.5764 8.29081 16.4054 9.44984 17.0185 10.6322C17.6361 11.8232 18 12.9721 18 14C18 17.3137 15.3137 20 12 20C8.68629 20 6 17.3137 6 14Z" fill="#6A6A6A"/>
<path d="M8.35964 14.0416C7.8303 14.1991 7.52889 14.7559 7.68643 15.2853C8.11874 16.7378 9.26213 17.8812 10.7147 18.3135C11.244 18.4711 11.8009 18.1697 11.9584 17.6403C12.1159 17.111 11.8145 16.5542 11.2852 16.3966C10.48 16.157 9.84298 15.52 9.60334 14.7148C9.4458 14.1854 8.88897 13.884 8.35964 14.0416Z" fill="#6A6A6A"/>
</svg>
